<svg width="155" height="31" viewBox="0 0 155 31" fill="none" xmlns="http://www.w3.org/2000/svg">
<path d="M9.15234 1.5625L15.5 21.3477L21.8281 1.5625H30.8516V30H23.9766V23.3594L24.6406 9.76562L17.7656 30H13.2344L6.33984 9.74609L7.00391 23.3594V30H0.148438V1.5625H9.15234ZM45.1484 30.3906C41.9062 30.3906 39.2826 29.4271 37.2773 27.5C35.2721 25.5599 34.2695 23.0404 34.2695 19.9414V19.3945C34.2695 17.2331 34.6667 15.3255 35.4609 13.6719C36.2682 12.0182 37.4401 10.7422 38.9766 9.84375C40.513 8.93229 42.3359 8.47656 44.4453 8.47656C47.4141 8.47656 49.7578 9.40104 51.4766 11.25C53.1953 13.0859 54.0547 15.651 54.0547 18.9453V21.5039H40.9688C41.2031 22.6888 41.7174 23.6198 42.5117 24.2969C43.306 24.974 44.3346 25.3125 45.5977 25.3125C47.681 25.3125 49.3086 24.5833 50.4805 23.125L53.4883 26.6797C52.668 27.8125 51.5026 28.7174 49.9922 29.3945C48.4948 30.0586 46.8802 30.3906 45.1484 30.3906ZM44.4062 13.5547C42.4792 13.5547 41.3333 14.8307 40.9688 17.3828H47.6094V16.875C47.6354 15.8203 47.3685 15.0065 46.8086 14.4336C46.2487 13.8477 45.4479 13.5547 44.4062 13.5547ZM55.8906 19.2773C55.8906 15.931 56.6133 13.2943 58.0586 11.3672C59.5039 9.4401 61.5221 8.47656 64.1133 8.47656C66.0013 8.47656 67.5898 9.21875 68.8789 10.7031V0H75.4805V30H69.5625L69.2305 27.7344C67.8763 29.5052 66.1576 30.3906 64.0742 30.3906C61.5612 30.3906 59.569 29.4271 58.0977 27.5C56.6263 25.5729 55.8906 22.832 55.8906 19.2773ZM62.4727 19.6875C62.4727 23.4375 63.5664 25.3125 65.7539 25.3125C67.2122 25.3125 68.2539 24.7005 68.8789 23.4766V15.4297C68.2799 14.1797 67.2513 13.5547 65.793 13.5547C63.7617 13.5547 62.6615 15.1953 62.4922 18.4766L62.4727 19.6875ZM86.1641 30H79.5625V8.86719H86.1641V30ZM79.1719 3.41797C79.1719 2.48047 79.5104 1.71224 80.1875 1.11328C80.8646 0.514323 81.7435 0.214844 82.8242 0.214844C83.9049 0.214844 84.7839 0.514323 85.4609 1.11328C86.138 1.71224 86.4766 2.48047 86.4766 3.41797C86.4766 4.35547 86.138 5.1237 85.4609 5.72266C84.7839 6.32161 83.9049 6.62109 82.8242 6.62109C81.7435 6.62109 80.8646 6.32161 80.1875 5.72266C79.5104 5.1237 79.1719 4.35547 79.1719 3.41797Z" fill="#C7F2FF"/>
<path d="M101.301 24.0625C101.301 23.5026 101.008 23.0534 100.422 22.7148C99.8359 22.3763 98.7227 22.0247 97.082 21.6602C95.4414 21.2956 94.0872 20.8203 93.0195 20.2344C91.9518 19.6354 91.138 18.9128 90.5781 18.0664C90.0182 17.2201 89.7383 16.25 89.7383 15.1562C89.7383 13.2161 90.5391 11.6211 92.1406 10.3711C93.7422 9.10807 95.8385 8.47656 98.4297 8.47656C101.216 8.47656 103.456 9.10807 105.148 10.3711C106.841 11.6341 107.688 13.2943 107.688 15.3516H101.086C101.086 13.6589 100.194 12.8125 98.4102 12.8125C97.7201 12.8125 97.1406 13.0078 96.6719 13.3984C96.2031 13.776 95.9688 14.2513 95.9688 14.8242C95.9688 15.4102 96.2552 15.8854 96.8281 16.25C97.401 16.6146 98.3125 16.9141 99.5625 17.1484C100.826 17.3828 101.932 17.6628 102.883 17.9883C106.06 19.082 107.648 21.0417 107.648 23.8672C107.648 25.7943 106.789 27.3633 105.07 28.5742C103.365 29.7852 101.151 30.3906 98.4297 30.3906C96.6198 30.3906 95.0052 30.0651 93.5859 29.4141C92.1667 28.763 91.0599 27.8776 90.2656 26.7578C89.4714 25.638 89.0742 24.4596 89.0742 23.2227H95.2266C95.2526 24.1992 95.5781 24.9154 96.2031 25.3711C96.8281 25.8138 97.6289 26.0352 98.6055 26.0352C99.5039 26.0352 100.174 25.8529 100.617 25.4883C101.073 25.1237 101.301 24.6484 101.301 24.0625ZM117.688 30H111.086V8.86719H117.688V30ZM110.695 3.41797C110.695 2.48047 111.034 1.71224 111.711 1.11328C112.388 0.514323 113.267 0.214844 114.348 0.214844C115.428 0.214844 116.307 0.514323 116.984 1.11328C117.661 1.71224 118 2.48047 118 3.41797C118 4.35547 117.661 5.1237 116.984 5.72266C116.307 6.32161 115.428 6.62109 114.348 6.62109C113.267 6.62109 112.388 6.32161 111.711 5.72266C111.034 5.1237 110.695 4.35547 110.695 3.41797ZM129.426 3.61328V8.86719H132.902V13.4375H129.426V23.1055C129.426 23.8997 129.569 24.4531 129.855 24.7656C130.142 25.0781 130.708 25.2344 131.555 25.2344C132.206 25.2344 132.753 25.1953 133.195 25.1172V29.8242C132.01 30.2018 130.773 30.3906 129.484 30.3906C127.219 30.3906 125.546 29.8568 124.465 28.7891C123.384 27.7214 122.844 26.1003 122.844 23.9258V13.4375H120.148V8.86719H122.844V3.61328H129.426ZM145.734 30.3906C142.492 30.3906 139.868 29.4271 137.863 27.5C135.858 25.5599 134.855 23.0404 134.855 19.9414V19.3945C134.855 17.2331 135.253 15.3255 136.047 13.6719C136.854 12.0182 138.026 10.7422 139.562 9.84375C141.099 8.93229 142.922 8.47656 145.031 8.47656C148 8.47656 150.344 9.40104 152.062 11.25C153.781 13.0859 154.641 15.651 154.641 18.9453V21.5039H141.555C141.789 22.6888 142.303 23.6198 143.098 24.2969C143.892 24.974 144.921 25.3125 146.184 25.3125C148.267 25.3125 149.895 24.5833 151.066 23.125L154.074 26.6797C153.254 27.8125 152.089 28.7174 150.578 29.3945C149.081 30.0586 147.466 30.3906 145.734 30.3906ZM144.992 13.5547C143.065 13.5547 141.919 14.8307 141.555 17.3828H148.195V16.875C148.221 15.8203 147.954 15.0065 147.395 14.4336C146.835 13.8477 146.034 13.5547 144.992 13.5547Z" fill="white"/>
</svg>
