<svg width="21" height="15" viewBox="0 0 21 15" fill="none" xmlns="http://www.w3.org/2000/svg">
<path d="M19.0983 6.41645C19.0913 5.70506 19.0889 4.9884 19.0866 4.27438H17.1919C17.1848 4.98577 17.1802 5.69979 17.1755 6.41645C16.5377 6.41908 15.9045 6.42435 15.2714 6.43226V8.56379C15.9045 8.57169 16.5423 8.57696 17.1755 8.58486C17.1825 9.29625 17.1825 10.0103 17.1872 10.7217H19.0842C19.0866 10.0103 19.0913 9.29625 19.0959 8.57959C19.7338 8.57169 20.3669 8.56905 21 8.56115V6.42962C20.3692 6.42435 19.7314 6.42435 19.0983 6.41645ZM6.67031 6.42699C6.66796 7.27802 6.67031 8.13168 6.67265 8.98271C7.94359 9.03014 9.21687 9.00906 10.4878 9.03014C9.92737 12.1998 6.09346 13.2273 4.06512 11.1564C1.97816 9.34104 2.07665 5.3599 4.24568 3.67365C5.76283 2.31411 7.91779 2.64872 9.43495 3.82647C10.0306 3.2073 10.5886 2.54333 11.1256 1.85829C9.86406 0.727975 8.31643 -0.0782645 6.67031 0.00604819C3.23268 -0.123056 0.0740995 3.25999 0.0178218 7.1252C-0.202599 10.2843 1.64518 13.3801 4.25271 14.4973C6.85086 15.6223 10.183 14.8556 11.8432 12.2314C12.9382 10.5741 13.1751 8.43995 13.0461 6.43489C10.9193 6.41645 8.79479 6.41908 6.67031 6.42699Z" fill="#C93535"/>
</svg>
