<svg width="15" height="11" viewBox="0 0 15 11" fill="none" xmlns="http://www.w3.org/2000/svg">
<path d="M13.6416 4.70539C13.6366 4.18371 13.6349 3.65816 13.6333 3.13454H12.2799C12.2749 3.65623 12.2715 4.17985 12.2682 4.70539C11.8126 4.70733 11.3604 4.71119 10.9081 4.71699V6.28011C11.3604 6.28591 11.816 6.28977 12.2682 6.29557C12.2732 6.81725 12.2732 7.34087 12.2766 7.86255H13.6316C13.6333 7.34087 13.6366 6.81725 13.64 6.2917C14.0955 6.28591 14.5478 6.28397 15 6.27818V4.71506C14.5494 4.71119 14.0939 4.71119 13.6416 4.70539ZM4.76451 4.71312C4.76283 5.33721 4.76451 5.96323 4.76618 6.58732C5.67399 6.6221 6.58348 6.60665 7.49129 6.6221C7.09098 8.9465 4.35247 9.70004 2.90366 8.18136C1.41297 6.8501 1.48332 3.9306 3.03263 2.69401C4.11631 1.69701 5.65557 1.9424 6.73925 2.80608C7.16468 2.35202 7.56331 1.86511 7.94687 1.36275C7.04576 0.533849 5.94031 -0.057394 4.76451 0.00443534C2.30906 -0.0902408 0.0529282 2.39066 0.0127299 5.22515C-0.144713 7.54181 1.17513 9.81211 3.03765 10.6313C4.89347 11.4564 7.27355 10.8941 8.4594 8.96968C9.24159 7.75435 9.41076 6.1893 9.31864 4.71892C7.79948 4.70539 6.28199 4.70733 4.76451 4.71312Z" fill="black"/>
</svg>
