<svg width="12" height="13" viewBox="0 0 12 13" fill="none" xmlns="http://www.w3.org/2000/svg">
<path d="M2.66666 1.44444C2.66666 2.21144 2.19333 2.87154 1.33266 2.87154C0.522665 2.87154 0 2.24899 0 1.48199C0 0.694775 0.506665 0 1.33333 0C2.15999 0 2.65066 0.657219 2.66666 1.44444ZM0 12.9999V3.6111H2.66666V12.9999H0Z" fill="black"/>
<path d="M4.00001 6.82064C4.00001 5.70481 3.96601 4.77242 3.93201 3.96715H6.32801L6.44668 5.21153H6.49735C6.83468 4.62581 7.66135 3.76709 9.04535 3.76709C10.7334 3.76709 12 4.99125 12 7.6252V13H9.33336V8.04481C9.33336 6.89359 8.92869 6.01537 8.00002 6.01537C7.29202 6.01537 6.93735 6.63647 6.75135 7.14853C6.68335 7.33197 6.66668 7.58764 6.66668 7.84403V13H4.00001V6.82064Z" fill="black"/>
</svg>
