<svg width="12" height="11" viewBox="0 0 12 11" fill="none" xmlns="http://www.w3.org/2000/svg">
<path d="M10.7713 2.73823C10.7765 2.85741 10.7785 2.97807 10.7785 3.09725C10.7785 6.76833 8.30217 11 3.77413 11C2.38304 11 1.08978 10.5402 0 9.75154C0.644593 9.83947 1.29823 9.78324 1.92355 9.58606C2.54886 9.38889 3.13361 9.05463 3.64435 8.6024C3.13071 8.59144 2.63294 8.3997 2.22064 8.05398C1.80834 7.70825 1.50211 7.22583 1.34478 6.67416C1.71395 6.75204 2.0939 6.7357 2.45674 6.62634C1.89953 6.49888 1.39852 6.15803 1.03862 5.66153C0.678713 5.16504 0.482051 4.54344 0.481957 3.90209V3.86751C0.823824 4.08204 1.20617 4.20134 1.59717 4.21549C1.07535 3.82306 0.705963 3.22078 0.564402 2.53158C0.422841 1.84238 0.519781 1.11821 0.835435 0.506892C1.45356 1.36504 2.22479 2.06692 3.09905 2.56693C3.9733 3.06694 4.93102 3.3539 5.91 3.40918C5.86765 3.20143 5.84642 2.98892 5.84674 2.77575C5.84674 2.41117 5.91041 2.05017 6.03411 1.71335C6.15781 1.37653 6.33912 1.0705 6.56768 0.812741C6.79624 0.55498 7.06758 0.350535 7.36619 0.211084C7.66481 0.0716327 7.98485 -9.29396e-05 8.30804 3.68863e-06C8.64487 -0.00061595 8.97821 0.0768388 9.2874 0.227563C9.59658 0.378288 9.87502 0.599067 10.1054 0.876207C10.6566 0.753125 11.1852 0.52525 11.6687 0.202318C11.4848 0.845459 11.1001 1.39135 10.5861 1.73843C11.0741 1.67317 11.5507 1.52587 12 1.30143C11.6699 1.85941 11.2537 2.34605 10.7713 2.73823Z" fill="black"/>
</svg>
